<svg xmlns="http://www.w3.org/2000/svg" xmlns:xlink="http://www.w3.org/1999/xlink" width="100" zoomAndPan="magnify" viewBox="0 0 75 74.999997" height="100" preserveAspectRatio="xMidYMid meet" version="1.0"><defs><filter x="0%" y="0%" width="100%" height="100%" id="9b08f2f18f"><feColorMatrix values="0 0 0 0 1 0 0 0 0 1 0 0 0 0 1 0 0 0 1 0" color-interpolation-filters="sRGB"/></filter><clipPath id="bd6258bda1"><path d="M 1.511719 12 L 35 12 L 35 45.519531 L 1.511719 45.519531 Z M 1.511719 12 " clip-rule="nonzero"/></clipPath><clipPath id="c0835c52e3"><path d="M 40 12 L 73.511719 12 L 73.511719 45.519531 L 40 45.519531 Z M 40 12 " clip-rule="nonzero"/></clipPath><clipPath id="16e49fab41"><path d="M 47.953125 47.160156 L 67.453125 47.160156 L 67.453125 66.660156 L 47.953125 66.660156 Z M 47.953125 47.160156 " clip-rule="nonzero"/></clipPath><mask id="4b8bbb7ae8"><g filter="url(#9b08f2f18f)"><rect x="-7.5" width="90" fill="#000000" y="-7.5" height="89.999996" fill-opacity="0.4078"/></g></mask><clipPath id="6b47e85e6e"><path d="M 0 0.519531 L 31.921875 0.519531 L 31.921875 43.480469 L 0 43.480469 Z M 0 0.519531 " clip-rule="nonzero"/></clipPath><clipPath id="9940c9c54e"><path d="M 4 3 L 31.921875 3 L 31.921875 43.480469 L 4 43.480469 Z M 4 3 " clip-rule="nonzero"/></clipPath><clipPath id="0c1deffe82"><rect x="0" width="32" y="0" height="44"/></clipPath><mask id="8674cd582d"><g filter="url(#9b08f2f18f)"><rect x="-7.5" width="90" fill="#000000" y="-7.5" height="89.999996" fill-opacity="0.4078"/></g></mask><clipPath id="d4b734bfa8"><path d="M 0.839844 0.519531 L 33.71875 0.519531 L 33.71875 43.480469 L 0.839844 43.480469 Z M 0.839844 0.519531 " clip-rule="nonzero"/></clipPath><clipPath id="22b5ea8652"><path d="M 5 3 L 33.71875 3 L 33.71875 43.480469 L 5 43.480469 Z M 5 3 " clip-rule="nonzero"/></clipPath><clipPath id="1b6e36e032"><rect x="0" width="34" y="0" height="44"/></clipPath></defs><g clip-path="url(#bd6258bda1)"><path fill="#ffffff" d="M 18.011719 45.140625 C 8.914062 45.140625 1.511719 37.742188 1.511719 28.644531 C 1.511719 19.542969 8.914062 12.144531 18.011719 12.144531 C 27.109375 12.144531 34.511719 19.542969 34.511719 28.644531 C 34.511719 37.742188 27.109375 45.140625 18.011719 45.140625 Z M 18.011719 15.144531 C 10.570312 15.144531 4.511719 21.199219 4.511719 28.644531 C 4.511719 36.082031 10.570312 42.140625 18.011719 42.140625 C 25.453125 42.140625 31.511719 36.082031 31.511719 28.644531 C 31.511719 21.199219 25.453125 15.144531 18.011719 15.144531 Z M 18.011719 15.144531 " fill-opacity="1" fill-rule="nonzero"/></g><g clip-path="url(#c0835c52e3)"><path fill="#ffffff" d="M 57.011719 45.140625 C 47.914062 45.140625 40.511719 37.742188 40.511719 28.644531 C 40.511719 19.542969 47.914062 12.144531 57.011719 12.144531 C 66.109375 12.144531 73.511719 19.542969 73.511719 28.644531 C 73.511719 37.742188 66.109375 45.140625 57.011719 45.140625 Z M 57.011719 15.144531 C 49.570312 15.144531 43.511719 21.199219 43.511719 28.644531 C 43.511719 36.082031 49.570312 42.140625 57.011719 42.140625 C 64.453125 42.140625 70.511719 36.082031 70.511719 28.644531 C 70.511719 21.199219 64.453125 15.144531 57.011719 15.144531 Z M 57.011719 15.144531 " fill-opacity="1" fill-rule="nonzero"/></g><path fill="#ffffff" d="M 40.511719 27.144531 L 34.511719 27.144531 C 33.683594 27.144531 33.011719 26.472656 33.011719 25.644531 C 33.011719 24.816406 33.683594 24.144531 34.511719 24.144531 L 40.511719 24.144531 C 41.335938 24.144531 42.011719 24.816406 42.011719 25.644531 C 42.011719 26.472656 41.335938 27.144531 40.511719 27.144531 Z M 40.511719 27.144531 " fill-opacity="1" fill-rule="nonzero"/><g clip-path="url(#16e49fab41)"><path fill="#ffffff" d="M 61.621094 47.160156 C 61.621094 54.703125 55.496094 60.828125 47.953125 60.828125 L 47.953125 66.660156 C 58.722656 66.660156 67.453125 57.929688 67.453125 47.160156 Z M 61.621094 47.160156 " fill-opacity="1" fill-rule="nonzero"/></g><g mask="url(#4b8bbb7ae8)"><g transform="matrix(1, 0, 0, 1, 0, 5)"><g clip-path="url(#0c1deffe82)"><g clip-path="url(#6b47e85e6e)"><path stroke-linecap="butt" transform="matrix(0.37325, -0.646489, 0.649519, 0.375, 6.199858, 34.522568)" fill="none" stroke-linejoin="miter" d="M -0.000269584 2.001855 L 40.191424 1.999446 " stroke="#ffffff" stroke-width="4" stroke-opacity="1" stroke-miterlimit="4"/></g><g clip-path="url(#9940c9c54e)"><path stroke-linecap="butt" transform="matrix(0.37325, -0.646489, 0.649519, 0.375, 11.872632, 37.478963)" fill="none" stroke-linejoin="miter" d="M -0.000885589 1.002489 L 40.190808 1.00008 " stroke="#ffffff" stroke-width="2" stroke-opacity="1" stroke-miterlimit="4"/></g></g></g></g><g mask="url(#8674cd582d)"><g transform="matrix(1, 0, 0, 1, 39, 5)"><g clip-path="url(#1b6e36e032)"><g clip-path="url(#d4b734bfa8)"><path stroke-linecap="butt" transform="matrix(0.37325, -0.646489, 0.649519, 0.375, 7.804506, 34.522568)" fill="none" stroke-linejoin="miter" d="M 0.000280172 2.002803 L 40.191974 2.000394 " stroke="#ffffff" stroke-width="4" stroke-opacity="1" stroke-miterlimit="4"/></g><g clip-path="url(#22b5ea8652)"><path stroke-linecap="butt" transform="matrix(0.37325, -0.646489, 0.649519, 0.375, 13.477281, 37.478963)" fill="none" stroke-linejoin="miter" d="M -0.00295285 0.998925 L 40.191357 1.001027 " stroke="#ffffff" stroke-width="2" stroke-opacity="1" stroke-miterlimit="4"/></g></g></g></g></svg>